# File created by Blade
# Date/Time:  Thu Sep 25 15:31:15 2014
# Frame Rate: 120.000 fps
#------------------------------------------------------
:FULLY-SPECIFIED
:DEGREES
443
root 19.246965 32.057745 -2.563514 170.368329 -73.097279 -123.909419
Spine 30.914105 17.167604 -1.027789
Head -46.760801 0.623788 8.531439
LeftShoulder 13.426986 -13.127214 30.515774
LeftArm 64.018368 -18.924032 -31.697884
LeftForeArm 9.596109 -0.000000 18.562195
LeftHand -25.266840 -0.000000 -0.776497
LeftHandThumb1 -26.253704 0.000000 33.147579
RightShoulder 9.492490 33.988564 -28.754872
RightArm 52.324369 2.404299 47.836155
RightForeArm -24.616278 -0.000000 19.881839
RightHand -5.764537 -0.000000 0.662459
RightHandThumb1 -24.326973 -0.000000 -32.862282
LeftUpLeg -81.271357 11.093264 -2.620733
LeftLeg 42.357119 -0.000000 -0.000000
LeftFoot 0.195142 11.503035 -20.496318
LeftToeBase -6.655857 -0.000000 0.000000
RightUpLeg -29.056211 2.739906 18.375171
RightLeg 8.747615 -0.000000 -0.000000
RightFoot -13.145743 -7.985013 -7.477317
RightToeBase -9.081694 -0.000000 0.000000
444
root 18.946204 32.033886 -2.549476 170.932980 -73.069141 -123.970491
Spine 30.880335 17.182103 -1.398031
Head -47.040659 0.843688 8.747271
LeftShoulder 13.482607 -13.257211 30.889126
LeftArm 63.740515 -19.138503 -31.646128
LeftForeArm 9.630631 0.000000 18.601834
LeftHand -25.336627 -0.000000 -0.790345
LeftHandThumb1 -26.253704 0.000000 33.147579
RightShoulder 9.601663 33.891118 -28.762256
RightArm 52.398427 2.821770 47.750540
RightForeArm -24.447315 -0.000000 20.006111
RightHand -5.722762 0.000000 0.772363
RightHandThumb1 -24.326973 -0.000000 -32.862282
LeftUpLeg -81.494553 11.004886 -2.598410
LeftLeg 43.054348 -0.000000 -0.000000
LeftFoot -0.955938 11.123158 -20.674822
LeftToeBase -6.756192 -0.000000 0.000000
RightUpLeg -29.190070 2.842471 18.193844
RightLeg 9.016006 -0.000000 -0.000000
RightFoot -13.004286 -8.168651 -7.557437
RightToeBase -9.548858 -0.000000 0.000000
445
root 18.649267 32.009364 -2.532855 171.674778 -73.066731 -124.106241
Spine 30.717683 17.175648 -1.858764
Head -47.241172 1.071166 9.084664
LeftShoulder 13.546315 -13.469971 31.288996
LeftArm 63.366942 -19.239706 -31.571486
LeftForeArm 9.615319 -0.000000 18.647481
LeftHand -25.341807 0.000000 -1.020226
LeftHandThumb1 -26.253704 0.000000 33.147579
RightShoulder 9.751444 33.997556 -28.711105
RightArm 52.291985 3.086562 47.652561
RightForeArm -24.337577 -0.000000 20.156704
RightHand -5.724199 0.000000 0.811304
RightHandThumb1 -24.326973 -0.000000 -32.862282
LeftUpLeg -81.830100 10.879941 -2.643746
LeftLeg 43.759904 -0.000000 -0.000000
LeftFoot -2.052259 10.898075 -20.781086
LeftToeBase -6.922419 -0.000000 0.000000
RightUpLeg -29.416400 3.038320 17.936183
RightLeg 9.219938 -0.000000 -0.000000
RightFoot -12.856133 -8.432106 -7.532664
RightToeBase -9.935045 -0.000000 0.000000
446
root 18.347589 31.978839 -2.519442 172.193776 -73.034204 -124.007579
Spine 30.562461 17.187413 -2.171588
Head -47.435100 1.209629 9.277294
LeftShoulder 13.689736 -13.687739 31.534101
LeftArm 62.973374 -19.301634 -31.272668
LeftForeArm 9.242413 0.000000 18.572583
LeftHand -25.323339 -0.000000 -0.832853
LeftHandThumb1 -26.253704 0.000000 33.147579
RightShoulder 9.846289 33.879797 -28.789219
RightArm 52.310220 3.448031 47.520152
RightForeArm -24.184640 -0.000000 20.349957
RightHand -5.741390 0.000000 0.877449
RightHandThumb1 -24.326973 -0.000000 -32.862282
LeftUpLeg -82.170281 10.741811 -2.588381
LeftLeg 44.480611 -0.000000 -0.000000
LeftFoot -3.250028 10.759642 -21.005319
LeftToeBase -6.973337 -0.000000 0.000000
RightUpLeg -29.626679 3.208385 17.790839
RightLeg 9.437368 -0.000000 -0.000000
RightFoot -12.616325 -8.741548 -7.726597
RightToeBase -10.391825 -0.000000 0.000000
447
root 18.038787 31.947692 -2.500407 172.830917 -73.041528 -124.031860
Spine 30.457357 17.178611 -2.554551
Head -47.858876 1.490691 9.604225
LeftShoulder 13.812596 -13.795831 31.917817
LeftArm 62.674352 -19.615565 -31.307592
LeftForeArm 9.472502 0.000000 18.562203
LeftHand -25.256479 -0.000000 -1.216130
LeftHandThumb1 -26.253704 0.000000 33.147579
RightShoulder 9.955323 33.725492 -28.799600
RightArm 52.363595 3.886004 47.343364
RightForeArm -23.935956 0.000000 20.544517
RightHand -5.707061 -0.000000 0.864951
RightHandThumb1 -24.326973 -0.000000 -32.862282
LeftUpLeg -82.492939 10.590443 -2.656928
LeftLeg 45.178812 -0.000000 -0.000000
LeftFoot -4.506784 10.660398 -21.144452
LeftToeBase -6.697756 -0.000000 0.000000
RightUpLeg -29.838852 3.239977 17.622136
RightLeg 9.632663 -0.000000 -0.000000
RightFoot -12.465726 -8.857353 -7.635392
RightToeBase -10.870735 -0.000000 0.000000
448
root 17.733071 31.909422 -2.486865 173.263999 -73.064270 -123.718110
Spine 30.184532 17.140095 -2.830624
Head -48.135857 1.686620 9.800019
LeftShoulder 13.952620 -13.943034 32.119723
LeftArm 62.425203 -19.801649 -31.252990
LeftForeArm 9.633552 -0.000000 18.505736
LeftHand -25.184459 -0.000000 -1.286860
LeftHandThumb1 -26.253704 0.000000 33.147579
RightShoulder 10.035584 33.617741 -28.893337
RightArm 52.308614 4.239292 47.242718
RightForeArm -23.770566 -0.000000 20.806213
RightHand -5.788438 0.000000 0.866268
RightHandThumb1 -24.326973 -0.000000 -32.862282
LeftUpLeg -82.952816 10.383662 -2.597395
LeftLeg 45.888781 -0.000000 -0.000000
LeftFoot -5.796224 10.571070 -21.419541
LeftToeBase -6.514592 -0.000000 0.000000
RightUpLeg -30.130583 3.320187 17.546911
RightLeg 9.779424 -0.000000 -0.000000
RightFoot -12.231515 -9.007736 -7.715442
RightToeBase -11.384944 -0.000000 0.000000
449
root 17.427044 31.867427 -2.468516 173.680655 -73.084508 -123.357916
Spine 29.909302 17.031277 -3.111625
Head -48.510784 1.952836 9.943581
LeftShoulder 14.019602 -14.032790 32.458686
LeftArm 62.147258 -20.039119 -31.298007
LeftForeArm 9.487436 -0.000000 18.451524
LeftHand -25.088575 -0.000000 -1.294650
LeftHandThumb1 -26.253704 0.000000 33.147579
RightShoulder 10.166631 33.396993 -28.951382
RightArm 52.417175 4.656071 46.974347
RightForeArm -23.453807 -0.000000 20.960457
RightHand -5.753626 -0.000000 0.747770
RightHandThumb1 -24.326973 -0.000000 -32.862282
LeftUpLeg -83.425540 10.165520 -2.551177
LeftLeg 46.562519 -0.000000 -0.000000
LeftFoot -7.112650 10.518244 -21.651083
LeftToeBase -6.212255 -0.000000 0.000000
RightUpLeg -30.442233 3.354717 17.493387
RightLeg 9.903756 -0.000000 -0.000000
RightFoot -12.106689 -9.162409 -7.637484
RightToeBase -11.698048 -0.000000 0.000000
